<svg width="20" height="20" viewBox="0 0 20 20" fill="none" xmlns="http://www.w3.org/2000/svg">
<path d="M5.72143 1.72717H18.5557C18.9363 1.72865 19.3011 1.87972 19.5713 2.14779C19.8415 2.41586 19.9955 2.77943 20 3.16003V3.74146C19.9992 4.12401 19.8467 4.49064 19.576 4.76088C19.3052 5.03111 18.9383 5.18289 18.5557 5.18289H5.72143C5.33887 5.18289 4.97195 5.03111 4.70117 4.76088C4.4304 4.49064 4.2779 4.12401 4.27714 3.74146V3.1586C4.28201 2.77825 4.43614 2.41505 4.70631 2.14728C4.97648 1.87952 5.34105 1.72864 5.72143 1.72717V1.72717Z" fill="#403B36"/>
<path d="M1.44286 8.27148H18.5557C18.9362 8.27333 19.3008 8.42452 19.5709 8.69251C19.8411 8.96051 19.9951 9.32386 20 9.70434V10.2858C19.9996 10.6686 19.8473 11.0356 19.5765 11.3061C19.3057 11.5767 18.9385 11.7286 18.5557 11.7286H1.44286C1.25338 11.7286 1.06575 11.6913 0.890699 11.6188C0.715643 11.5463 0.556584 11.44 0.422603 11.306C0.288621 11.172 0.18234 11.013 0.10983 10.8379C0.0373197 10.6629 -4.76837e-07 10.4752 -4.76837e-07 10.2858V9.70291C0.00449662 9.32269 0.158314 8.95949 0.428255 8.69169C0.698196 8.42388 1.06261 8.27296 1.44286 8.27148Z" fill="#403B36"/>
<path d="M10.7143 14.8172H18.5557C18.9356 14.8187 19.2997 14.9691 19.5698 15.2363C19.8399 15.5034 19.9944 15.8659 20 16.2458V16.8258C19.9996 17.2086 19.8473 17.5756 19.5765 17.8461C19.3057 18.1167 18.9385 18.2686 18.5557 18.2686H10.7143C10.3315 18.2686 9.96434 18.1167 9.69353 17.8461C9.42271 17.5756 9.27038 17.2086 9.27 16.8258V16.2443C9.27598 15.8647 9.4306 15.5026 9.70065 15.2358C9.9707 14.9689 10.3346 14.8186 10.7143 14.8172V14.8172Z" fill="#403B36"/>
</svg>
